<svg viewBox="0 0 48 48" fill="none" xmlns="http://www.w3.org/2000/svg">
    <path
        d="M37.1686 12.4039C34.7466 11.2913 32.1494 10.4715 29.4338 10.002C29.3844 9.99291 29.335 10.0156 29.3095 10.0608C28.9755 10.6557 28.6055 11.4317 28.3464 12.0416C25.4256 11.6038 22.5199 11.6038 19.659 12.0416C19.3999 11.4181 19.0164 10.6557 18.6809 10.0608C18.6554 10.0171 18.606 9.99442 18.5566 10.002C15.8425 10.47 13.2453 11.2898 10.8218 12.4039C10.8008 12.413 10.7829 12.4281 10.7709 12.4477C5.84454 19.8167 4.495 27.0045 5.15704 34.1032C5.16003 34.138 5.1795 34.1712 5.20646 34.1923C8.45675 36.5822 11.6052 38.033 14.6952 38.9947C14.7446 39.0098 14.797 38.9917 14.8285 38.9509C15.5595 37.9515 16.211 36.8977 16.7697 35.7896C16.8026 35.7247 16.7712 35.6477 16.7038 35.622C15.6703 35.2295 14.6862 34.7509 13.7396 34.2074C13.6647 34.1636 13.6587 34.0564 13.7276 34.0051C13.9268 33.8556 14.126 33.7001 14.3163 33.5431C14.3507 33.5144 14.3986 33.5084 14.4391 33.5265C20.658 36.3693 27.3908 36.3693 33.5363 33.5265C33.5768 33.5069 33.6248 33.5129 33.6607 33.5416C33.8509 33.6986 34.0501 33.8556 34.2508 34.0051C34.3197 34.0564 34.3152 34.1636 34.2404 34.2074C33.2937 34.7614 32.3096 35.2295 31.2746 35.6205C31.2073 35.6462 31.1773 35.7247 31.2103 35.7896C31.7809 36.8962 32.4325 37.95 33.1499 38.9494C33.1799 38.9917 33.2338 39.0098 33.2832 38.9947C36.3882 38.033 39.5366 36.5822 42.7869 34.1923C42.8154 34.1712 42.8334 34.1395 42.8364 34.1047C43.6287 25.8978 41.5093 18.7689 37.218 12.4492C37.2075 12.4281 37.1896 12.413 37.1686 12.4039ZM17.6984 29.7809C15.826 29.7809 14.2833 28.0598 14.2833 25.9462C14.2833 23.8325 15.7961 22.1115 17.6984 22.1115C19.6155 22.1115 21.1434 23.8477 21.1134 25.9462C21.1134 28.0598 19.6006 29.7809 17.6984 29.7809ZM30.325 29.7809C28.4527 29.7809 26.91 28.0598 26.91 25.9462C26.91 23.8325 28.4228 22.1115 30.325 22.1115C32.2423 22.1115 33.77 23.8477 33.7401 25.9462C33.7401 28.0598 32.2423 29.7809 30.325 29.7809Z"
        fill="white" />
</svg>
