<svg viewBox="0 0 48 48" fill="none" xmlns="http://www.w3.org/2000/svg">
    <path fill-rule="evenodd" clip-rule="evenodd"
        d="M23.5161 5C12.7242 5 4 13.7083 4 24.4816C4 33.0934 9.58991 40.383 17.3446 42.963C18.3141 43.157 18.6693 42.5438 18.6693 42.0281C18.6693 41.5764 18.6373 40.0283 18.6373 38.4153C13.2084 39.5767 12.0779 36.093 12.0779 36.093C11.2054 33.8352 9.91268 33.2549 9.91268 33.2549C8.1358 32.0614 10.0421 32.0614 10.0421 32.0614C12.0131 32.1905 13.0474 34.0612 13.0474 34.0612C14.7919 37.0283 17.6031 36.19 18.734 35.6738C18.8954 34.4158 19.4127 33.545 19.962 33.0613C15.632 32.6097 11.0764 30.9325 11.0764 23.4493C11.0764 21.3205 11.8514 19.5789 13.0794 18.2243C12.8856 17.7406 12.2069 15.7405 13.2735 13.0635C13.2735 13.0635 14.9213 12.5473 18.6369 15.0632C20.2277 14.6368 21.8682 14.4199 23.5161 14.418C25.164 14.418 26.8438 14.644 28.395 15.0632C32.1109 12.5473 33.7588 13.0635 33.7588 13.0635C34.8254 15.7405 34.1463 17.7406 33.9525 18.2243C35.2129 19.5789 35.9559 21.3205 35.9559 23.4493C35.9559 30.9325 31.4002 32.5772 27.0379 33.0613C27.749 33.674 28.3626 34.835 28.3626 36.6737C28.3626 39.2861 28.3307 41.3829 28.3307 42.0277C28.3307 42.5438 28.6862 43.157 29.6553 42.9634C37.41 40.3826 42.9999 33.0934 42.9999 24.4816C43.0319 13.7083 34.2757 5 23.5161 5Z"
        fill="white" />
</svg>
