<svg viewBox="0 0 48 48" fill="none" xmlns="http://www.w3.org/2000/svg">
    <path d="M38.4832 7H9.51016C8.12227 7 7 8.0957 7 9.45039V38.543C7 39.8977 8.12227 41 9.51016 41H38.4832C39.8711 41 41 39.8977 41 38.5496V9.45039C41 8.0957 39.8711 7 38.4832 7ZM17.0871 35.973H12.0402V19.7434H17.0871V35.973ZM14.5637 17.532C12.9434 17.532 11.6352 16.2238 11.6352 14.6102C11.6352 12.9965 12.9434 11.6883 14.5637 11.6883C16.1773 11.6883 17.4855 12.9965 17.4855 14.6102C17.4855 16.2172 16.1773 17.532 14.5637 17.532ZM35.973 35.973H30.9328V28.084C30.9328 26.2047 30.8996 23.7809 28.3098 23.7809C25.6867 23.7809 25.2883 25.8328 25.2883 27.9512V35.973H20.2547V19.7434H25.0891V21.9613H25.1555C25.8262 20.6863 27.473 19.3383 29.9234 19.3383C35.0301 19.3383 35.973 22.6984 35.973 27.068V35.973Z" fill="white"/>
</svg>