<svg viewBox="0 0 48 48" fill="none" xmlns="http://www.w3.org/2000/svg">
    <path
        d="M6.1125 14.4987C6.33934 13.5048 6.89697 12.6173 7.69407 11.9817C8.49117 11.3461 9.48049 10.9999 10.5 11H37.5C38.5195 10.9999 39.5088 11.3461 40.3059 11.9817C41.103 12.6173 41.6607 13.5048 41.8875 14.4987L24 25.4315L6.1125 14.4987ZM6 17.0682V33.0522L19.0568 25.0467L6 17.0682ZM21.2122 26.3675L6.42975 35.4282C6.79498 36.1984 7.37143 36.849 8.09201 37.3042C8.81258 37.7595 9.64764 38.0008 10.5 38H37.5C38.3522 38.0002 39.187 37.7584 39.9071 37.3027C40.6273 36.847 41.2032 36.1962 41.568 35.426L26.7855 26.3652L24 28.0685L21.2122 26.3652V26.3675ZM28.9432 25.049L42 33.0522V17.0682L28.9432 25.0467V25.049Z"
        fill="white" />
</svg>
