<svg viewBox="0 0 48 48" fill="none" xmlns="http://www.w3.org/2000/svg">
    <path d="M28.8826 11.3175C29.2988 13.0818 30.8832 14.3962 32.7751 14.3962C34.9838 14.3962 36.7744 12.6056 36.7744 10.3968C36.7744 8.18809 34.9838 6.39746 32.7751 6.39746C30.8438 6.39746 29.2332 7.76621 28.8582 9.58684C25.6238 9.93371 23.0982 12.6768 23.0982 16.0012C23.0982 16.0087 23.0982 16.0143 23.0982 16.0218C19.5807 16.17 16.3688 17.1712 13.8188 18.7518C12.8719 18.0187 11.6832 17.5818 10.3932 17.5818C7.29757 17.5818 4.78882 20.0906 4.78882 23.1862C4.78882 25.4325 6.10882 27.3675 8.01569 28.2618C8.20132 34.7681 15.2907 40.0012 24.0113 40.0012C32.7319 40.0012 39.8307 34.7625 40.0069 28.2506C41.8988 27.3506 43.2076 25.4212 43.2076 23.1881C43.2076 20.0925 40.6988 17.5837 37.6032 17.5837C36.3188 17.5837 35.1357 18.0168 34.1907 18.7443C31.6182 17.1525 28.3707 16.1512 24.8176 16.0181C24.8176 16.0125 24.8176 16.0087 24.8176 16.0031C24.8176 13.6218 26.5876 11.6456 28.8826 11.3212V11.3175ZM13.5938 26.7431C13.6876 24.7106 15.0376 23.1506 16.6069 23.1506C18.1763 23.1506 19.3763 24.7987 19.2826 26.8312C19.1888 28.8637 18.0169 29.6025 16.4457 29.6025C14.8744 29.6025 13.5001 28.7756 13.5938 26.7431ZM31.4176 23.1506C32.9888 23.1506 34.3388 24.7106 34.4307 26.7431C34.5244 28.7756 33.1482 29.6025 31.5788 29.6025C30.0094 29.6025 28.8357 28.8656 28.7419 26.8312C28.6482 24.7987 29.8463 23.1506 31.4176 23.1506ZM29.5501 31.4456C29.8444 31.4756 30.0319 31.7812 29.9176 32.055C28.9519 34.3631 26.6719 35.985 24.0113 35.985C21.3507 35.985 19.0726 34.3631 18.1051 32.055C17.9907 31.7812 18.1782 31.4756 18.4726 31.4456C20.1976 31.2712 22.0632 31.1756 24.0113 31.1756C25.9594 31.1756 27.8232 31.2712 29.5501 31.4456Z" fill="white"/>
</svg>